TITLE ""
FILE "2Q_t_0901-0917.mp3" MP3
  TRACK 01 AUDIO
    TITLE "2Q_t_0901-0917_01"
    INDEX 01 00:00:00
  TRACK 02 AUDIO
    TITLE "2Q_t_0901-0917_02"
    INDEX 01 00:00:12
  TRACK 03 AUDIO
    TITLE "2Q_t_0901-0917_03"
    INDEX 01 00:03:50
  TRACK 04 AUDIO
    TITLE "2Q_t_0901-0917_04"
    INDEX 01 00:04:57
  TRACK 05 AUDIO
    TITLE "2Q_t_0901-0917_05"
    INDEX 01 00:06:19
  TRACK 06 AUDIO
    TITLE "2Q_t_0901-0917_06"
    INDEX 01 00:06:68
  TRACK 07 AUDIO
    TITLE "2Q_t_0901-0917_07"
    INDEX 01 00:07:71
  TRACK 08 AUDIO
    TITLE "2Q_t_0901-0917_08"
    INDEX 01 00:08:41
  TRACK 09 AUDIO
    TITLE "2Q_t_0901-0917_09"
    INDEX 01 00:09:54
  TRACK 10 AUDIO
    TITLE "2Q_t_0901-0917_10"
    INDEX 01 00:10:26
  TRACK 11 AUDIO
    TITLE "2Q_t_0901-0917_11"
    INDEX 01 00:11:65
  TRACK 12 AUDIO
    TITLE "2Q_t_0901-0917_12"
    INDEX 01 00:12:35
  TRACK 13 AUDIO
    TITLE "2Q_t_0901-0917_13"
    INDEX 01 00:13:34
  TRACK 14 AUDIO
    TITLE "2Q_t_0901-0917_14"
    INDEX 01 00:14:14
  TRACK 15 AUDIO
    TITLE "2Q_t_0901-0917_15"
    INDEX 01 00:17:28
  TRACK 16 AUDIO
    TITLE "2Q_t_0901-0917_16"
    INDEX 01 00:17:73
  TRACK 17 AUDIO
    TITLE "2Q_t_0901-0917_17"
    INDEX 01 00:19:15
  TRACK 18 AUDIO
    TITLE "2Q_t_0901-0917_18"
    INDEX 01 00:19:61
  TRACK 19 AUDIO
    TITLE "2Q_t_0901-0917_19"
    INDEX 01 00:21:18
  TRACK 20 AUDIO
    TITLE "2Q_t_0901-0917_20"
    INDEX 01 00:21:63
  TRACK 21 AUDIO
    TITLE "2Q_t_0901-0917_21"
    INDEX 01 00:22:65
  TRACK 22 AUDIO
    TITLE "2Q_t_0901-0917_22"
    INDEX 01 00:23:41
  TRACK 23 AUDIO
    TITLE "2Q_t_0901-0917_23"
    INDEX 01 00:27:60
  TRACK 24 AUDIO
    TITLE "2Q_t_0901-0917_24"
    INDEX 01 00:28:28
  TRACK 25 AUDIO
    TITLE "2Q_t_0901-0917_25"
    INDEX 01 00:29:43
  TRACK 26 AUDIO
    TITLE "2Q_t_0901-0917_26"
    INDEX 01 00:30:17
  TRACK 27 AUDIO
    TITLE "2Q_t_0901-0917_27"
    INDEX 01 00:32:57
  TRACK 28 AUDIO
    TITLE "2Q_t_0901-0917_28"
    INDEX 01 00:33:25
  TRACK 29 AUDIO
    TITLE "2Q_t_0901-0917_29"
    INDEX 01 00:34:44
  TRACK 30 AUDIO
    TITLE "2Q_t_0901-0917_30"
    INDEX 01 00:35:16
  TRACK 31 AUDIO
    TITLE "2Q_t_0901-0917_31"
    INDEX 01 00:36:73
  TRACK 32 AUDIO
    TITLE "2Q_t_0901-0917_32"
    INDEX 01 00:37:41
  TRACK 33 AUDIO
    TITLE "2Q_t_0901-0917_33"
    INDEX 01 00:38:72
  TRACK 34 AUDIO
    TITLE "2Q_t_0901-0917_34"
    INDEX 01 00:39:42
  TRACK 35 AUDIO
    TITLE "2Q_t_0901-0917_35"
    INDEX 01 00:41:03
  TRACK 36 AUDIO
    TITLE "2Q_t_0901-0917_36"
    INDEX 01 00:41:46
  TRACK 37 AUDIO
    TITLE "2Q_t_0901-0917_37"
    INDEX 01 00:42:52
  TRACK 38 AUDIO
    TITLE "2Q_t_0901-0917_38"
    INDEX 01 00:43:40
  TRACK 39 AUDIO
    TITLE "2Q_t_0901-0917_39"
    INDEX 01 00:44:60
  TRACK 40 AUDIO
    TITLE "2Q_t_0901-0917_40"
    INDEX 01 00:45:31
  TRACK 41 AUDIO
    TITLE "2Q_t_0901-0917_41"
    INDEX 01 00:46:38
  TRACK 42 AUDIO
    TITLE "2Q_t_0901-0917_42"
    INDEX 01 00:47:18
  TRACK 43 AUDIO
    TITLE "2Q_t_0901-0917_43"
    INDEX 01 00:48:56
  TRACK 44 AUDIO
    TITLE "2Q_t_0901-0917_44"
    INDEX 01 00:49:26
  TRACK 45 AUDIO
    TITLE "2Q_t_0901-0917_45"
    INDEX 01 00:50:49
  TRACK 46 AUDIO
    TITLE "2Q_t_0901-0917_46"
    INDEX 01 00:51:21
  TRACK 47 AUDIO
    TITLE "2Q_t_0901-0917_47"
    INDEX 01 00:55:07
  TRACK 48 AUDIO
    TITLE "2Q_t_0901-0917_48"
    INDEX 01 00:55:52
  TRACK 49 AUDIO
    TITLE "2Q_t_0901-0917_49"
    INDEX 01 00:56:58
  TRACK 50 AUDIO
    TITLE "2Q_t_0901-0917_50"
    INDEX 01 00:57:30
  TRACK 51 AUDIO
    TITLE "2Q_t_0901-0917_51"
    INDEX 01 00:58:43
  TRACK 52 AUDIO
    TITLE "2Q_t_0901-0917_52"
    INDEX 01 00:59:11
  TRACK 53 AUDIO
    TITLE "2Q_t_0901-0917_53"
    INDEX 01 01:00:12
  TRACK 54 AUDIO
    TITLE "2Q_t_0901-0917_54"
    INDEX 01 01:00:60
  TRACK 55 AUDIO
    TITLE "2Q_t_0901-0917_55"
    INDEX 01 01:02:66
  TRACK 56 AUDIO
    TITLE "2Q_t_0901-0917_56"
    INDEX 01 01:03:36
  TRACK 57 AUDIO
    TITLE "2Q_t_0901-0917_57"
    INDEX 01 01:04:40
  TRACK 58 AUDIO
    TITLE "2Q_t_0901-0917_58"
    INDEX 01 01:05:12
  TRACK 59 AUDIO
    TITLE "2Q_t_0901-0917_59"
    INDEX 01 01:06:37
  TRACK 60 AUDIO
    TITLE "2Q_t_0901-0917_60"
    INDEX 01 01:07:05
  TRACK 61 AUDIO
    TITLE "2Q_t_0901-0917_61"
    INDEX 01 01:08:36
  TRACK 62 AUDIO
    TITLE "2Q_t_0901-0917_62"
    INDEX 01 01:09:10
  TRACK 63 AUDIO
    TITLE "2Q_t_0901-0917_63"
    INDEX 01 01:12:43
  TRACK 64 AUDIO
    TITLE "2Q_t_0901-0917_64"
    INDEX 01 01:13:11
  TRACK 65 AUDIO
    TITLE "2Q_t_0901-0917_65"
    INDEX 01 01:14:44
  TRACK 66 AUDIO
    TITLE "2Q_t_0901-0917_66"
    INDEX 01 01:15:14
  TRACK 67 AUDIO
    TITLE "2Q_t_0901-0917_67"
    INDEX 01 01:16:41
  TRACK 68 AUDIO
    TITLE "2Q_t_0901-0917_68"
    INDEX 01 01:17:13
  TRACK 69 AUDIO
    TITLE "2Q_t_0901-0917_69"
    INDEX 01 01:18:46
  TRACK 70 AUDIO
    TITLE "2Q_t_0901-0917_70"
    INDEX 01 01:19:16
  TRACK 71 AUDIO
    TITLE "2Q_t_0901-0917_71"
    INDEX 01 01:22:28
  TRACK 72 AUDIO
    TITLE "2Q_t_0901-0917_72"
    INDEX 01 01:22:71
  TRACK 73 AUDIO
    TITLE "2Q_t_0901-0917_73"
    INDEX 01 01:24:23
  TRACK 74 AUDIO
    TITLE "2Q_t_0901-0917_74"
    INDEX 01 01:24:68
  TRACK 75 AUDIO
    TITLE "2Q_t_0901-0917_75"
    INDEX 01 01:28:03
